<?xml version="1.0" encoding="utf-8"?>
<!-- Generator: Adobe Illustrator 17.1.0, SVG Export Plug-In . SVG Version: 6.00 Build 0)  -->
<!DOCTYPE svg PUBLIC "-//W3C//DTD SVG 1.1//EN" "http://www.w3.org/Graphics/SVG/1.1/DTD/svg11.dtd">
<svg version="1.1" id="Layer_1" xmlns="http://www.w3.org/2000/svg" xmlns:xlink="http://www.w3.org/1999/xlink" x="0px" y="0px"
	 viewBox="0 0 77 86" style="enable-background:new 0 0 77 86;" xml:space="preserve">
<ellipse style="fill:#F2F2F2;" cx="38.9" cy="46.7" rx="36.4" ry="37.5"/>
<g>
	<path d="M17.9,58.2C17.8,58.2,17.8,58.2,17.9,58.2l-6.5,6.2c-1.1,1.1-1.2,2.9-0.1,4l4.6,4.8c1.1,1.1,2.9,1.2,4,0.1l6.4-6.1
		c0,0,0.1-0.1,0.1-0.1c6.9,3.6,15.7,2.6,21.6-3L22,36.7C16,42.4,14.6,51.1,17.9,58.2z"/>
	<path d="M58,20.1l-6.4,6.1c0,0-0.1,0.1-0.1,0.1c-6.9-3.6-15.7-2.6-21.7,3.1l7.7,8.1l-4.4,4.2c-0.6,0.6-0.6,1.5-0.1,2.1
		c0.6,0.6,1.5,0.6,2.1,0.1l4.4-4.2l6.4,6.7l-4.4,4.2c-0.6,0.6-0.6,1.5-0.1,2.1c0.6,0.6,1.5,0.6,2.1,0.1l4.4-4.2l7.7,8.1
		c6-5.7,7.4-14.4,4.2-21.5c0,0,0.1-0.1,0.1-0.1l6.4-6.1c1.1-1.1,1.2-2.9,0.1-4L62,20.2C60.9,19.1,59.1,19,58,20.1z"/>
</g>
<g>
	<circle style="fill:#FB9E19;stroke:#FFFFFF;stroke-miterlimit:10;" cx="14.5" cy="13.8" r="13"/>
	<g>
		<path style="fill:#FFFFFF;" d="M13.6,10.4L13.6,10.4l-1.8,1l-0.3-1.1l2.3-1.2H15v10.4h-1.4V10.4z"/>
	</g>
</g>
</svg>
