<?xml version="1.0" encoding="utf-8"?>
<!-- Generator: Adobe Illustrator 17.1.0, SVG Export Plug-In . SVG Version: 6.00 Build 0)  -->
<!DOCTYPE svg PUBLIC "-//W3C//DTD SVG 1.1//EN" "http://www.w3.org/Graphics/SVG/1.1/DTD/svg11.dtd">
<svg version="1.1" id="Layer_1" xmlns="http://www.w3.org/2000/svg" xmlns:xlink="http://www.w3.org/1999/xlink" x="0px" y="0px"
	 viewBox="0 0 600 400" style="enable-background:new 0 0 600 400;" xml:space="preserve">
<rect x="22.5" y="20.5" style="fill:#FFFFFF;stroke:#000000;stroke-miterlimit:10;" width="101" height="101"/>
<rect x="165.5" y="20.5" style="fill:#FFFFFF;stroke:#000000;stroke-miterlimit:10;" width="101" height="101"/>
<rect x="308.5" y="20.5" style="fill:#FFFFFF;stroke:#000000;stroke-miterlimit:10;" width="101" height="101"/>
<rect x="451.5" y="20.5" style="fill:#FFFFFF;stroke:#000000;stroke-miterlimit:10;" width="101" height="101"/>
<rect x="22.5" y="140.5" style="fill:#FFFFFF;stroke:#000000;stroke-miterlimit:10;" width="101" height="101"/>
<rect x="165.5" y="140.5" style="fill:#FFFFFF;stroke:#000000;stroke-miterlimit:10;" width="101" height="101"/>
<rect x="308.5" y="141.5" style="fill:#FFFFFF;stroke:#000000;stroke-miterlimit:10;" width="101" height="101"/>
<rect x="451.5" y="141.5" style="fill:#FFFFFF;stroke:#000000;stroke-miterlimit:10;" width="101" height="101"/>
<rect x="22.5" y="279.5" style="fill:#FFFFFF;stroke:#000000;stroke-miterlimit:10;" width="101" height="101"/>
<rect x="165.5" y="279.5" style="fill:#FFFFFF;stroke:#000000;stroke-miterlimit:10;" width="101" height="101"/>
<rect x="308.5" y="279.5" style="fill:#FFFFFF;stroke:#000000;stroke-miterlimit:10;" width="101" height="101"/>
<rect x="451.5" y="279.5" style="fill:#FFFFFF;stroke:#000000;stroke-miterlimit:10;" width="101" height="101"/>
<g>
	<g>
		<line style="fill:none;stroke:#595858;stroke-width:2;stroke-miterlimit:10;" x1="129" y1="72" x2="151" y2="72"/>
		<g>
			<polygon style="fill:#595858;" points="149,76.4 156.6,72 149,67.6 			"/>
		</g>
	</g>
</g>
<g>
	<g>
		<line style="fill:none;stroke:#595858;stroke-width:2;stroke-miterlimit:10;" x1="272" y1="71" x2="294" y2="71"/>
		<g>
			<polygon style="fill:#595858;" points="292,75.4 299.6,71 292,66.6 			"/>
		</g>
	</g>
</g>
<g>
	<g>
		<line style="fill:none;stroke:#595858;stroke-width:2;stroke-miterlimit:10;" x1="129" y1="208" x2="151" y2="208"/>
		<g>
			<polygon style="fill:#595858;" points="149,212.4 156.6,208 149,203.6 			"/>
		</g>
	</g>
</g>
<g>
	<g>
		<line style="fill:none;stroke:#595858;stroke-width:2;stroke-miterlimit:10;" x1="272" y1="206" x2="294" y2="206"/>
		<g>
			<polygon style="fill:#595858;" points="292,210.4 299.6,206 292,201.6 			"/>
		</g>
	</g>
</g>
<g>
	<g>
		<line style="fill:none;stroke:#595858;stroke-width:2;stroke-miterlimit:10;" x1="415" y1="74" x2="437" y2="74"/>
		<g>
			<polygon style="fill:#595858;" points="435,78.4 442.6,74 435,69.6 			"/>
		</g>
	</g>
</g>
<g>
	<g>
		<line style="fill:none;stroke:#595858;stroke-width:2;stroke-miterlimit:10;" x1="415" y1="204" x2="437" y2="204"/>
		<g>
			<polygon style="fill:#595858;" points="435,208.4 442.6,204 435,199.6 			"/>
		</g>
	</g>
</g>
<g>
	<g>
		<line style="fill:none;stroke:#595858;stroke-width:2;stroke-miterlimit:10;" x1="129" y1="333" x2="151" y2="333"/>
		<g>
			<polygon style="fill:#595858;" points="149,337.4 156.6,333 149,328.6 			"/>
		</g>
	</g>
</g>
<g>
	<g>
		<line style="fill:none;stroke:#595858;stroke-width:2;stroke-miterlimit:10;" x1="272" y1="333" x2="294" y2="333"/>
		<g>
			<polygon style="fill:#595858;" points="292,337.4 299.6,333 292,328.6 			"/>
		</g>
	</g>
</g>
<g>
	<g>
		<line style="fill:none;stroke:#595858;stroke-width:2;stroke-miterlimit:10;" x1="415" y1="333" x2="437" y2="333"/>
		<g>
			<polygon style="fill:#595858;" points="435,337.4 442.6,333 435,328.6 			"/>
		</g>
	</g>
</g>
<g>
	<g>
		<polyline style="fill:none;stroke:#595858;stroke-width:2;stroke-miterlimit:10;" points="558,74 583,74 583,134 7,134 7,208 
			16,208 		"/>
		<g>
			<polygon style="fill:#595858;" points="15,212.4 22.6,208 15,203.6 			"/>
		</g>
	</g>
</g>
<g>
	<g>
		<polyline style="fill:none;stroke:#595858;stroke-width:2;stroke-miterlimit:10;" points="558,204 583,204 583,264 7,264 7,338 
			16,338 		"/>
		<g>
			<polygon style="fill:#595858;" points="15,342.4 22.6,338 15,333.6 			"/>
		</g>
	</g>
</g>
<line style="fill:none;stroke:#B3B3B3;stroke-width:14;stroke-miterlimit:10;" x1="33" y1="49" x2="107" y2="49"/>
<line style="fill:none;stroke:#B3B3B3;stroke-width:14;stroke-miterlimit:10;" x1="465" y1="305" x2="539" y2="305"/>
<line style="fill:none;stroke:#B3B3B3;stroke-width:14;stroke-miterlimit:10;" x1="320" y1="305" x2="394" y2="305"/>
<line style="fill:none;stroke:#B3B3B3;stroke-width:14;stroke-miterlimit:10;" x1="33" y1="300" x2="107" y2="300"/>
<line style="fill:none;stroke:#B3B3B3;stroke-width:14;stroke-miterlimit:10;" x1="176" y1="302" x2="250" y2="302"/>
<line style="fill:none;stroke:#B3B3B3;stroke-width:14;stroke-miterlimit:10;" x1="465" y1="162" x2="539" y2="162"/>
<line style="fill:none;stroke:#B3B3B3;stroke-width:14;stroke-miterlimit:10;" x1="320" y1="162" x2="394" y2="162"/>
<line style="fill:none;stroke:#B3B3B3;stroke-width:14;stroke-miterlimit:10;" x1="33" y1="162" x2="107" y2="162"/>
<line style="fill:none;stroke:#B3B3B3;stroke-width:14;stroke-miterlimit:10;" x1="176" y1="162" x2="250" y2="162"/>
<line style="fill:none;stroke:#B3B3B3;stroke-width:14;stroke-miterlimit:10;" x1="465" y1="49" x2="539" y2="49"/>
<line style="fill:none;stroke:#B3B3B3;stroke-width:14;stroke-miterlimit:10;" x1="320" y1="49" x2="394" y2="49"/>
<line style="fill:none;stroke:#B3B3B3;stroke-width:14;stroke-miterlimit:10;" x1="176" y1="49" x2="250" y2="49"/>
</svg>
