<?xml version="1.0" encoding="utf-8"?>
<!-- Generator: Adobe Illustrator 17.1.0, SVG Export Plug-In . SVG Version: 6.00 Build 0)  -->
<!DOCTYPE svg PUBLIC "-//W3C//DTD SVG 1.1//EN" "http://www.w3.org/Graphics/SVG/1.1/DTD/svg11.dtd">
<svg version="1.1" id="Layer_1" xmlns="http://www.w3.org/2000/svg" xmlns:xlink="http://www.w3.org/1999/xlink" x="0px" y="0px"
	 viewBox="0 0 77 86" style="enable-background:new 0 0 77 86;" xml:space="preserve">
<ellipse style="fill:#F2F2F2;" cx="38.4" cy="47.2" rx="36.4" ry="37.5"/>
<g>
	<circle style="fill:#FB9E19;stroke:#FFFFFF;stroke-miterlimit:10;" cx="15" cy="14.3" r="13"/>
	<g>
		<path style="fill:#FFFFFF;" d="M12.1,20v-0.9l1.1-1.1c2.7-2.5,3.9-3.9,3.9-5.4c0-1.1-0.5-2-2.1-2c-0.9,0-1.7,0.5-2.2,0.9l-0.4-1
			c0.7-0.6,1.7-1.1,2.9-1.1c2.2,0,3.2,1.5,3.2,3c0,1.9-1.4,3.5-3.6,5.6L14,18.8v0h4.7V20H12.1z"/>
	</g>
</g>
<g>
	<g>
		<g>
			<g>
				<path d="M47.1,53.1c4.6,0,8.6,2.3,11,5.9l4.7-4.8c-3.6-4.8-9.3-7.9-15.7-7.9h0L47.1,53.1C47.1,53.1,47.1,53.1,47.1,53.1z"/>
				<path d="M47.1,32.8L47.1,32.8l0,6.8h0c8.2,0,15.6,3.8,20.4,9.8l4.7-4.8C66.2,37.4,57.2,32.8,47.1,32.8z"/>
				<path d="M47.1,70.2l6.1-6.2c-1-2.4-3.4-4.1-6.1-4.1h0L47.1,70.2L47.1,70.2z"/>
			</g>
			<g>
				<path d="M14.2,54.2l4.7,4.8c2.4-3.6,6.4-5.9,11-5.9v-6.8C23.5,46.3,17.8,49.4,14.2,54.2z"/>
				<path d="M4.7,44.6l4.7,4.8c4.9-6,12.2-9.8,20.4-9.8v-6.8C19.8,32.8,10.8,37.4,4.7,44.6z"/>
				<path d="M23.8,64l6.1,6.2V59.9C27.1,59.9,24.8,61.6,23.8,64z"/>
			</g>
			<path d="M45.9,30.6c1.6-2.1,2.5-3.8,2.6-6.3c0-2.1-0.6-3.9-1.6-5.6c-1.2-1.9-2.8-3-4.5-3.7l-0.1,8.4c-0.2,1.7-0.7,3-2.2,3.1
				l-3.3-0.2c-1.7,0.1-2.6-1.2-2.6-3l-0.4-7.6c-1.8,1-2.8,1.5-3.8,3.3c-1,1.7-1.7,3.4-1.6,5.4c-0.1,2.2,0.9,3.8,2.2,5.5
				c0.6,0.8,1.9,2.1,2.6,2.6l0.1,18h0l0.3,20.1c1.8,6.9,9.2,4.3,9.4,0.8l0-22.9l0,0l0-15.2L45.9,30.6z M40.8,71.1
				c-1.3,1.3-3.3,1.3-4.6,0c-1.3-1.3-1.3-3.4,0-4.7c1.3-1.3,3.3-1.3,4.6,0C42.1,67.7,42.1,69.8,40.8,71.1z"/>
		</g>
	</g>
</g>
</svg>
