<?xml version="1.0" encoding="utf-8"?>
<!-- Generator: Adobe Illustrator 17.1.0, SVG Export Plug-In . SVG Version: 6.00 Build 0)  -->
<!DOCTYPE svg PUBLIC "-//W3C//DTD SVG 1.1//EN" "http://www.w3.org/Graphics/SVG/1.1/DTD/svg11.dtd">
<svg version="1.1" id="Layer_1" xmlns="http://www.w3.org/2000/svg" xmlns:xlink="http://www.w3.org/1999/xlink" x="0px" y="0px"
	 viewBox="0 0 77 86" style="enable-background:new 0 0 77 86;" xml:space="preserve">
<ellipse style="fill:#F2F2F2;" cx="38.9" cy="45.7" rx="36.4" ry="37.5"/>
<g>
	<g transform="translate(0.000000,954.000000) scale(0.100000,-0.100000)">
		<path d="M126.1,9245.6c-2.8-1-4.8-2.7-6-5.2c-0.8-1.8-0.9-7.5-0.9-178.5c0-147.2,0.1-176.9,0.6-178.1c0.9-2.1,2.9-4.3,5-5.4l1.8-1
			l98.3-0.1l98.3-0.1v-9v-9h-10.6h-10.6v-10.4v-10.4h101.8h101.8v10.4v10.4h-11.3h-11.3v9v9l99,0.1l98.9,0.1l1.8,1
			c2.1,1.1,4.1,3.3,5,5.4c0.5,1.2,0.6,30.9,0.6,178.1v176.7l-0.9,1.9c-1.2,2.6-3.5,4.5-6.3,5.4c-2.1,0.6-30.8,0.7-277.5,0.7
			C138.1,9246.4,128.5,9246.4,126.1,9245.6z M668.3,9061.8v-163.9H403.9H139.5v163.9v163.9h264.4h264.4V9061.8z M462.9,8868.1v-9
			h-59.5H344v9v9h59.5h59.5V8868.1z"/>
		<path d="M172.8,9195.4l-8.2-5.6l-0.1-2c-0.1-1.6,0-2,0.6-1.7c0.7,0.3,20.9,13.7,21.6,14.3c0.3,0.3-0.9,0.4-2.6,0.4h-3
			L172.8,9195.4z"/>
		<path d="M179.9,9190.7l-15.3-10.2l-0.1-1.9c-0.1-1.1-0.1-2,0.1-2c0.3,0,35.3,23.3,36.1,23.9c0.3,0.3-0.8,0.4-2.5,0.4h-2.9
			L179.9,9190.7z"/>
		<path d="M186.8,9186.1l-22.3-14.9l-0.1-2.1c-0.1-1.6,0-2,0.4-1.7c1.5,0.9,49.3,32.8,49.6,33.1c0.3,0.3-0.8,0.4-2.5,0.4h-3
			L186.8,9186.1z"/>
		<path d="M315.2,9199.9l-2-1l13.6-0.1c7.5-0.1,19.8-0.1,27.3,0l13.7,0.1l-1.8,0.9c-1.7,0.9-2.8,0.9-25.2,1l-23.4,0.1L315.2,9199.9z
			"/>
		<path d="M461.1,9200.4c-2.2-0.7-4.8-3.5-5.4-5.7c-0.3-1-0.4-2-0.3-2.1c0.1-0.1,3.2,1.8,6.7,4.1l6.5,4.3l-2.9-0.1
			C464,9200.9,462,9200.6,461.1,9200.4z"/>
		<path d="M466.8,9193.2l-11.6-7.7v-3.8c0-2,0.1-3.7,0.3-3.7c0.1,0,8,5.2,17.5,11.5l17.2,11.5h-5.9h-5.9L466.8,9193.2z"/>
		<path d="M477.7,9186l-22.4-14.9v-3.8c0-3.8,0-3.8,1-3.2c0.6,0.3,13.2,8.7,28.2,18.7l27.2,18.2h-5.8h-5.8L477.7,9186z"/>
		<path d="M488.4,9178.9l-32.9-22.1l-0.1-3.8c-0.1-2.1,0-3.9,0.1-3.9c0.3,0,76.2,50.7,77,51.4c0.3,0.3-2.1,0.4-5.4,0.4h-5.9
			L488.4,9178.9z"/>
		<path d="M499.2,9171.7l-43.7-29.3l-0.1-3.9c-0.1-2.1,0-3.9,0.1-3.9c0.3,0,97.8,65.1,98.6,65.8c0.3,0.2-2.2,0.4-5.4,0.4l-5.9-0.1
			L499.2,9171.7z"/>
		<path d="M561.9,9199.2c-1.3-0.9-25.9-17.4-54.5-36.5l-52.2-34.8v-3.8c0-2.9,0.1-3.7,0.6-3.5c1,0.6,119.4,79.6,119.9,79.9
			c0.3,0.3-2.2,0.4-5.4,0.4h-5.9L561.9,9199.2z"/>
		<path d="M565.8,9187.4c-11.1-7.5-40.5-27.1-65.3-43.7l-45.2-30.2v-3.8c0-2.9,0.1-3.7,0.6-3.5c1.1,0.7,108.5,72.4,125,83.4
			l16.9,11.3h-5.9H586L565.8,9187.4z"/>
		<path d="M531.4,9150l-76.2-50.9v-3.9c0-2.9,0.1-3.7,0.6-3.5c1,0.6,119,79.4,141.2,94.2l22.3,14.9h-5.9h-5.9L531.4,9150z"/>
		<path d="M583.4,9170.3c-25.2-16.9-64.4-43.1-87-58.1l-41.1-27.5v-3.9c0-2.9,0.1-3.7,0.6-3.5c0.6,0.4,170.5,113.8,178,118.9
			c2.5,1.7,4.6,3.2,4.6,3.4c0,0.6-3,1.3-6.1,1.3h-3.2L583.4,9170.3z"/>
		<path d="M192.7,9180.7l-28.1-18.8l-0.1-1.8c-0.1-1.1,0.1-1.8,0.4-1.8c0.4,0,57.2,37.8,58.3,38.8c0.4,0.4-1.3,2.7-2,2.7
			C221,9199.5,208.2,9191.1,192.7,9180.7z"/>
		<path d="M310.4,9194.9c-0.3-0.9-0.6-2.1-0.6-2.7v-1.1h30.4h30.4v1c0,0.6-0.3,1.8-0.5,2.7l-0.4,1.6h-29.3h-29.3L310.4,9194.9z"/>
		<path d="M636.7,9191.6c-2.8-2-44.2-29.7-92-61.5c-47.8-31.9-86.9-58.3-87.1-58.5c-0.4-0.7,2-2.5,4.1-3l1.8-0.5l86.8,58.1
			c47.8,31.9,88.2,58.9,89.9,60.1c2.5,1.8,3,2.3,3.1,3.6c0.3,2.2-0.3,5.4-0.9,5.4C642.2,9195.1,639.6,9193.5,636.7,9191.6z"/>
		<path d="M194.6,9172.5l-30.3-20.2v-1.8c0-1.3,0.1-1.8,0.6-1.6c0.4,0.1,14,9.2,30.4,20.1l29.8,19.9v2c0,1.1-0.1,2-0.1,2
			C224.9,9192.8,211.3,9183.7,194.6,9172.5z"/>
		<path d="M309.8,9185.9v-2.9h30.4h30.4v2.9v2.9h-30.4h-30.4V9185.9z"/>
		<path d="M195.5,9163.8c-16.1-10.8-29.3-19.8-29.3-19.9c0-0.6,1.5-1.9,2.2-1.9c0.3,0,13.2,8.4,28.7,18.8l28.1,18.7v2
			c0,1-0.1,2-0.1,2C224.9,9183.4,211.6,9174.6,195.5,9163.8z"/>
		<path d="M625.9,9169.9c-9.1-6.1-47-31.5-84.2-56.4l-67.7-45.3l5.6-0.1l5.7-0.1l73.4,49c40.4,27,75.9,50.8,79.1,52.9l5.6,3.9
			l0.1,3.7c0.1,2.7,0,3.7-0.4,3.7C642.6,9181.1,635,9176.1,625.9,9169.9z"/>
		<path d="M309.8,9178v-2.7h30.4h30.4v2.7v2.7h-30.4h-30.4V9178z"/>
		<path d="M199.4,9157.2l-25-16.8l2.9-0.1l2.9-0.1l22.5,15l22.5,15v1.9c0,1.1-0.1,2-0.3,1.9C224.6,9173.9,213.2,9166.3,199.4,9157.2
			z"/>
		<path d="M309.8,9170.1v-2.9h30.4h30.4v2.9v2.9h-30.4h-30.4V9170.1z"/>
		<path d="M618.5,9150.6c-13.2-8.9-46.2-31-73.4-49.2l-49.5-33.1l5.6-0.1l5.7-0.1l61.9,41.4c34,22.8,64.7,43.3,68.2,45.7l6.3,4.3
			l0.1,3.7c0.1,2.7,0,3.7-0.4,3.7C642.6,9166.7,631.6,9159.4,618.5,9150.6z"/>
		<path d="M310.1,9165.1c-0.2-0.1-0.3-1.5-0.3-2.9v-2.6h30.4h30.4v2.9v2.9h-30.1C323.9,9165.4,310.2,9165.3,310.1,9165.1z"/>
		<path d="M206.5,9152.4l-18-12l2.8-0.1l2.8-0.1l15.4,10.2l15.4,10.2l0.1,2c0,1-0.1,1.9-0.3,1.8
			C224.6,9164.4,216.4,9159,206.5,9152.4z"/>
		<path d="M309.8,9154.6v-2.7h30.4h30.4v2.7v2.7h-30.4h-30.4V9154.6z"/>
		<path d="M213.7,9147.9l-11.2-7.5l2.8-0.1l2.8-0.1l8.5,5.7l8.5,5.6v2c0,1.1-0.1,2-0.1,2C224.9,9155.4,219.9,9152,213.7,9147.9z"/>
		<path d="M621.8,9138.4c-11.3-7.6-39.5-26.5-62.6-42l-42.1-28.1l5.7-0.1l5.6-0.1l49.1,32.9c27,18.1,52.9,35.4,57.5,38.5l8.3,5.6
			l0.1,3.7c0.1,2.7,0,3.7-0.4,3.7C642.6,9152.3,633.1,9146,621.8,9138.4z"/>
		<path d="M309.8,9148.7c0-0.5,0.3-1.7,0.7-2.7l0.7-1.8h29c32.6,0,29.5-0.4,30.2,3.5l0.3,1.8h-30.5
			C310.2,9149.6,309.8,9149.6,309.8,9148.7z"/>
		<path d="M314.3,9141.7c0-0.1,0.7-0.6,1.6-0.9c1.3-0.6,5.4-0.6,24.2-0.6c21.8,0,25.6,0.2,26.2,1.3
			C366.5,9141.8,314.3,9141.9,314.3,9141.7z"/>
		<path d="M614.3,9119.1c-15.4-10.3-38.7-26-51.9-34.8l-23.8-16l5.7-0.1l5.7-0.1l38.5,25.8c21.2,14.2,42.2,28.2,46.7,31.2l8.1,5.4
			l0.1,3.7c0.1,2.7,0,3.7-0.4,3.7C642.6,9137.9,629.8,9129.4,614.3,9119.1z"/>
		<path d="M245.5,9128.4c0.1-0.3,9.2-13.9,20.2-30.4l20-30l2.2-0.1c1.2,0,2.1,0.1,2.1,0.3c0,0.2-9,13.9-20.1,30.4l-20.1,30.2h-2.2
			C246.3,9128.9,245.4,9128.7,245.5,9128.4z"/>
		<path d="M259.2,9127.6c4.3-6.8,36.9-55.5,37.1-55.5c0.6,0,1.4,2.7,1.2,4c-0.1,0.7-8,12.8-17.5,27l-17.3,25.7h-2.3h-2.2
			L259.2,9127.6z"/>
		<path d="M271.8,9128.4c1.7-2.8,25.4-38.2,25.8-38.4c0.3-0.2,0.5,0.8,0.5,2.8v3l-11,16.6l-11,16.5h-2.3
			C272,9128.9,271.5,9128.8,271.8,9128.4z"/>
		<path d="M291,9119.2c3.5-5.3,6.6-9.7,6.8-9.7c0.2,0,0.3,1.3,0.3,2.9v2.9l-4.5,6.8l-4.5,6.8h-2.3h-2.3L291,9119.2z"/>
		<path d="M388.2,9125.9c-2.3-1.6-4.6-3.1-4.9-3.3c-0.4-0.2-0.6-0.9-0.4-1.6c0.1-1.2,0.2-1.2,6.6,3.1c3.6,2.4,6.6,4.4,6.7,4.6
			c0.1,0.1-0.7,0.2-1.8,0.1C392.7,9128.8,391.8,9128.4,388.2,9125.9z"/>
		<path d="M391.3,9123.2c-7.5-5-8.3-5.7-8.5-7c-0.1-1.3,0.1-1.3,10,5.4c5.6,3.7,10.2,6.8,10.2,7c0,0.1-0.8,0.3-1.6,0.2
			C399.9,9128.8,398.2,9127.9,391.3,9123.2z"/>
		<path d="M394.9,9121c-6.6-4.4-12-8-12.1-8c-0.1-0.1-0.1-0.7,0-1.3c0.1-1.1,0.7-0.8,13.4,7.7c7.3,4.9,13.5,9,13.7,9.2
			s-0.3,0.4-1.4,0.4C407.1,9128.9,405.3,9127.9,394.9,9121z"/>
		<path d="M398.3,9118.5c-14-9.5-15.3-10.4-15.4-11.7c-0.1-1.3,0.5-0.9,16.9,10c9.4,6.2,17.2,11.5,17.5,11.7
			c0.3,0.3-0.4,0.4-1.6,0.4C413.7,9128.8,412.5,9128.1,398.3,9118.5z"/>
		<path d="M402.3,9116.5c-10.1-6.8-18.7-12.6-19-12.8c-0.4-0.2-0.6-0.9-0.4-1.5c0.1-1.2,0.9-0.7,21.1,12.8
			c20.4,13.7,20.9,14,18.9,13.9C420.9,9128.8,419.5,9128,402.3,9116.5z"/>
		<path d="M405.4,9113.8c-20.9-14-22.5-15.2-22.6-16.5c-0.1-1.3,0.9-0.7,23.8,14.7c13.2,8.9,24.2,16.3,24.5,16.5
			c0.3,0.3-0.3,0.4-1.4,0.4C428.1,9128.9,425.7,9127.4,405.4,9113.8z"/>
		<path d="M409.1,9111.5c-14.4-9.6-26.2-17.5-26.2-17.5c-0.1-0.1-0.1-0.7,0-1.3c0.1-1.1,1.5-0.3,27.1,16.8
			c14.9,9.9,27.1,18.2,27.1,18.5s-0.1,0.4-0.3,0.4c-0.3,0-0.7,0.1-1.1,0.3C435.5,9128.8,423.5,9121,409.1,9111.5z"/>
		<path d="M411.1,9108.2c-26.4-17.7-28.1-19-28.3-20.3c-0.1-1.3,0.9-0.7,28.9,18.1c16,10.7,29.1,19.6,29.1,19.8c0,0.4-1,1.4-1.3,1.4
			C439.3,9127.1,426.6,9118.5,411.1,9108.2z"/>
		<path d="M238,9123.3l-0.8-2.1l17.7-26.6l17.7-26.6h2.2c1.2,0,2.2,0.1,2.2,0.3c0,0.3-37.2,55.9-37.8,56.6
			C238.9,9125.2,238.4,9124.5,238,9123.3z"/>
		<path d="M412.5,9104.3c-16.2-10.8-29.5-19.7-29.7-19.8c-0.1-0.1-0.1-0.7,0-1.3c0.1-1.1,1.7-0.1,30.2,18.8
			c27.6,18.4,30,20.1,29.6,20.9c-0.3,0.5-0.6,0.9-0.6,0.9C442,9124,428.7,9115.1,412.5,9104.3z"/>
		<path d="M601.3,9095.9l-41.2-27.6l5.7-0.1l5.7-0.1l35.9,24l35.9,24l0.1,3.7c0.1,2.7,0,3.7-0.4,3.7
			C642.6,9123.5,623.9,9111.1,601.3,9095.9z"/>
		<path d="M412.9,9099.9c-28-18.8-29.9-20.2-30.1-21.5c-0.1-1.3,1-0.6,29.9,18.7c16.5,11.1,30.1,20.2,30.2,20.2
			c0.1,0.1,0.1,0.7,0,1.3C442.9,9119.9,441.5,9119,412.9,9099.9z"/>
		<path d="M413.4,9095.5c-16.2-10.9-29.8-19.9-30.1-20.1c-0.4-0.3-0.5-0.6-0.1-1.3c0.5-0.9,2-0.1,30.2,18.8
			c28.3,18.8,29.7,19.9,29.7,21.2c0,0.8-0.1,1.3-0.1,1.3C442.9,9115.4,429.6,9106.4,413.4,9095.5z"/>
		<path d="M413.8,9091.1c-16-10.7-29.1-19.5-29.2-19.5c-0.1-0.1,0.3-0.4,0.7-0.9c0.8-0.7,2.3,0.3,29.2,18.2
			c15.6,10.4,28.4,19,28.5,19.1s0.1,0.7,0,1.3C442.9,9110.4,441.5,9109.6,413.8,9091.1z"/>
		<path d="M612,9088.7l-30.4-20.4l5.7-0.1l5.7-0.1l25.1,16.8l25.1,16.8l0.1,3.7c0.1,2.7,0,3.7-0.4,3.7
			C642.6,9109,628.7,9099.9,612,9088.7z"/>
		<path d="M237.3,9104.6v-3.3l11.1-16.6l11.1-16.6h2.2c1.2,0,2.2,0.1,2.2,0.2c0,0.3-25.6,38.6-26.2,39.2
			C237.4,9107.7,237.3,9106.4,237.3,9104.6z"/>
		<path d="M415.3,9087.3c-14.9-9.9-27.1-18.2-27.1-18.4s0.5-0.4,1.1-0.6c0.9-0.3,5.3,2.5,27.4,17.2c22.7,15.2,26.2,17.6,26.4,18.7
			c0.1,0.7,0,1.2-0.3,1.2C442.6,9105.4,430.2,9097.3,415.3,9087.3z"/>
		<path d="M418.5,9084.7c-23.5-15.8-24.3-16.3-22.6-16.5c1.6-0.1,3.2,0.9,24.4,15.1c12.5,8.3,22.7,15.2,22.8,15.3
			c0.1,0.1,0.1,0.6,0,1.3C442.9,9101,441.8,9100.3,418.5,9084.7z"/>
		<path d="M422,9082.4c-19.9-13.4-20.8-14-19.2-14.2c1.5-0.1,3.2,0.9,20.9,12.7c18.3,12.2,19.3,13,19.3,14.2c0,0.8-0.1,1.3-0.1,1.3
			C442.9,9096.4,433.5,9090.1,422,9082.4z"/>
		<path d="M623,9081.6l-20.2-13.5h5.9h5.9l14.5,9.7l14.5,9.7v3.9c0,2.1-0.1,3.9-0.1,3.9C643.3,9095.1,634.2,9089,623,9081.6z"/>
		<path d="M425.3,9079.8c-17.5-11.6-17.6-11.7-15.5-11.7c2,0,2.9,0.6,17.6,10.4c8.5,5.7,15.6,10.5,15.6,10.6c0.1,0.1,0.1,0.7,0,1.3
			C442.9,9091.4,442.1,9091,425.3,9079.8z"/>
		<path d="M237.3,9085.1v-3.5l4.5-6.8l4.5-6.8h2.3h2.3l-0.8,1.3c-0.4,0.7-3.5,5.2-6.8,10.2l-6,9v-3.5H237.3z"/>
		<path d="M428.7,9077.3c-13.4-9-13.7-9.2-11.8-9.2c1.7,0,3,0.8,14,8.1c10.5,7,12.1,8.3,12.1,9.2c0,0.6-0.1,1.1-0.3,1.1
			C442.6,9086.5,436.2,9082.4,428.7,9077.3z"/>
		<path d="M432.6,9075.2c-10.1-6.7-10.2-6.8-8.6-7c1.5-0.1,2.6,0.4,10.4,5.6c7.8,5.1,8.7,5.9,8.7,7c0,0.7-0.1,1.2-0.1,1.2
			C442.9,9082.1,438.3,9078.9,432.6,9075.2z"/>
		<path d="M633.4,9074.1l-9-6h5.8h5.9l2.8,1.9c1.6,1,3.2,2.5,3.6,3.2c1,1.9,1.4,7,0.6,7C642.6,9080.2,638.3,9077.5,633.4,9074.1z"/>
		<path d="M436.1,9072.9l-6.8-4.6l1.8-0.1c1.5-0.1,2.3,0.3,6.8,3.2c4.6,3.1,5.1,3.5,5.1,4.7c0,0.8-0.1,1.3-0.1,1.3
			C442.9,9077.5,439.8,9075.4,436.1,9072.9z"/>
		<path d="M317.8,9050.5l-8-5.4v-2.1c0-1.5,0.1-2,0.6-1.7c1.3,0.8,20.9,13.9,21.3,14.2c0.3,0.3-0.9,0.4-2.7,0.4h-3.2L317.8,9050.5z"
			/>
		<path d="M325,9045.8l-15.2-10.1v-2v-2l17.7,11.8c9.7,6.5,17.8,12,18.1,12.1c0.3,0.3-0.8,0.4-2.5,0.4h-2.9L325,9045.8z"/>
		<path d="M332.1,9041.2l-22.1-14.8l-0.1-1.9c-0.1-1.1-0.1-2,0.1-2c0.3,0,48.9,32.3,49.6,32.9c0.3,0.3-0.8,0.4-2.5,0.4h-2.9
			L332.1,9041.2z"/>
		<path d="M387.6,9055.2l-1.3-0.7v-28.8V8997l1.3-0.7c0.7-0.4,2-0.7,2.7-0.7h1.3v30.2v30.2h-1.5
			C389.5,9055.9,388.3,9055.6,387.6,9055.2z"/>
		<path d="M394,9025.8v-30.2h2.9h2.9v30.2v30.2H397H394L394,9025.8L394,9025.8z"/>
		<path d="M402.1,9025.8v-30.2h2.7h2.7v30.2v30.2h-2.7h-2.7V9025.8z"/>
		<path d="M409.8,9025.8v-30.2h2.9h2.9v30.2v30.2h-2.9h-2.9C409.8,9056,409.8,9025.8,409.8,9025.8z"/>
		<path d="M417.9,9025.8v-30.2h2.7h2.7v30.2v30.2h-2.7h-2.7V9025.8z"/>
		<path d="M425.5,9025.8v-30.2h2.7h2.7v30.2v30.2h-2.7h-2.7V9025.8z"/>
		<path d="M433.2,9025.8v-30.2h1.8c1,0,2.2,0.3,2.7,0.4c0.8,0.4,0.9,1.3,0.9,29.7c0,28.5-0.1,29.3-0.9,29.7
			c-0.5,0.3-1.7,0.4-2.7,0.4h-1.8V9025.8z"/>
		<path d="M337.8,9035.8l-28-18.8l-0.1-1.9c0-1.1,0.1-2,0.3-2c0.3,0,56.9,37.9,58.2,38.8c0.4,0.4,0.4,0.7-0.4,1.5
			c-0.6,0.6-1.2,1-1.5,1C366.1,9054.6,353.3,9046.1,337.8,9035.8z"/>
		<path d="M440.9,9025.8c0-14.9,0.1-27,0.3-27c0.2,0,0.6,0.7,1.1,1.5c0.9,1.4,0.9,2.3,0.9,25.6c0,23.3-0.1,24.2-0.9,25.6
			c-0.5,0.8-1,1.5-1.1,1.5C441,9052.8,440.9,9040.7,440.9,9025.8z"/>
		<path d="M383.3,9050.8c-0.4-0.9-0.6-7.9-0.6-25.1c0.1-19.9,0.1-24.2,0.7-25.1c0.6-1,0.6,2.1,0.7,25.1c0,14.4-0.1,26.2-0.1,26.2
			C383.9,9051.9,383.6,9051.4,383.3,9050.8z"/>
		<path d="M340,9027.8l-29.9-20l-0.1-2.1l-0.1-2.1l1.3,0.9c0.8,0.5,14.4,9.6,30.4,20.2l29,19.4l0.1,2c0,1-0.1,1.9-0.3,1.8
			C370.1,9047.8,356.5,9038.8,340,9027.8z"/>
		<path d="M455.7,9033.9h187.8v13.5H455.7V9033.9z"/>
		<path d="M341.1,9019.2c-16.1-10.7-29.3-19.7-29.4-19.9c-0.1-0.3,0.4-0.9,1-1.5l1.1-1.1l27.8,18.7c15.2,10.2,28.1,18.8,28.4,19.2
			c0.4,0.3,0.6,1.3,0.4,2.3l-0.1,1.8L341.1,9019.2z"/>
		<path d="M345.3,9012.6l-25-16.8l2.8-0.1l2.9-0.1l22.3,14.9l22.3,14.9v2c0,1.1-0.1,2-0.1,2S359,9021.8,345.3,9012.6z"/>
		<path d="M352.1,9007.8l-18.2-12.1h3h3l15.3,10.2l15.3,10.2v2c0,1-0.1,2-0.1,2C370.4,9019.9,362.2,9014.4,352.1,9007.8z"/>
		<path d="M455.7,9012.7h155.8v7.2H455.7V9012.7z"/>
		<path d="M358.9,9003l-11-7.4h3h3l8.3,5.6l8.3,5.5l0.1,2c0,1-0.1,1.9-0.3,1.8C370.1,9010.4,365,9007.1,358.9,9003z"/>
		<path d="M455.7,9001.2v-3.9h172.5v7.7H455.7V9001.2z"/>
		<path d="M455.7,8982.5h162.1v7.7H455.7V8982.5z"/>
		<path d="M173,8983.1c0.1-0.3,9.2-13.9,20.2-30.4l20-30l2-0.1c1,0,1.9,0.1,1.9,0.3c0,0.1-9,13.9-20.1,30.4l-20.1,30.2h-2
			C173.7,8983.4,172.9,8983.2,173,8983.1z"/>
		<path d="M182.4,8983.2c0-0.2,38.5-58.2,39-58.7c0.1-0.1,0.7,0.3,1.3,1l1.2,1.2l-18.9,28.4l-18.8,28.4l-1.9,0.1
			C183.2,8983.4,182.4,8983.4,182.4,8983.2z"/>
		<path d="M208.1,8958.4l16.8-25.1l0.1,2.9l0.1,2.9l-14.8,22.1l-14.8,22.1l-2.1,0.1l-2.1,0.1L208.1,8958.4z"/>
		<path d="M201.1,8982.8c0.2-0.3,5.6-8.5,12.1-18l11.7-17.5l0.1,2.8l0.1,2.8l-10.1,15.2l-10.2,15.2h-2.1
			C201.2,8983.4,200.8,8983.3,201.1,8982.8z"/>
		<path d="M211,8982.2c0.4-0.7,3.7-5.7,7.3-11.1l6.6-9.9l0.1,2.8l0.1,2.8l-5.5,8.2l-5.5,8.3h-2h-2L211,8982.2z"/>
		<path d="M247.1,8982.2c0.4-0.7,9.6-14.4,20.2-30.4c18-27.1,19.5-29,20.6-29.1h1.3l-0.9,1.3c-0.4,0.7-9.5,14.4-20.2,30.4
			c-18,27.1-19.5,29-20.6,29.1h-1.3L247.1,8982.2z"/>
		<path d="M270.9,8953.3c11.1-16.6,20.4-30.1,20.6-30.2c2.2,0,1.5,1-18.2,30.5c-18.7,27.9-20,29.8-21.3,29.8
			C250.8,8983.4,251.6,8982.2,270.9,8953.3z"/>
		<path d="M256.5,8982.2c0.4-0.7,9.2-13.9,19.5-29.3c17.6-26.4,18.7-28,19.5-27.3s-0.3,2.4-18.2,29.3
			c-17.8,26.6-19.1,28.5-20.3,28.5h-1.3L256.5,8982.2z"/>
		<path d="M278.6,8956c10.1-15.1,18.5-27.3,18.7-27.1c1.2,1.2,0.1,3-16.9,28.4c-16.4,24.5-17.6,26.2-18.8,26.2
			C260.3,8983.4,261,8982.3,278.6,8956z"/>
		<path d="M265.3,8983.1c0.5-1.2,32.1-48.3,32.4-48.3c0.2,0,0.3,0.7,0.3,1.5c0,1.2-3,6.1-15.2,24.3c-14.1,21.2-15.3,22.8-16.5,22.9
			C265.7,8983.4,265.2,8983.3,265.3,8983.1z"/>
		<path d="M283.7,8962.4c13.7-20.4,14.1-21.1,14.2-19.3c0.1,1.6-0.7,3-12.8,21.1c-12,17.8-13,19.3-14.2,19.3
			C269.8,8983.4,270.4,8982.4,283.7,8962.4z"/>
		<path d="M275,8982.9c0.2-0.3,5.4-8.2,11.6-17.5c10.8-16.1,11.3-16.8,11.4-15.2c0.1,1.5-0.9,3.1-10.4,17.5
			c-9.6,14.5-10.6,15.7-11.8,15.8C275,8983.4,274.7,8983.2,275,8982.9z"/>
		<path d="M288.3,8969.7c5.1-7.5,9.3-13.7,9.5-13.7s0.3,0.7,0.3,1.6c0,1.3-1.5,3.7-8.2,13.7c-7.5,11.1-8.3,12.1-9.5,12.1
			S279.5,8982.9,288.3,8969.7z"/>
		<path d="M284.9,8982.2c4.4-6.8,12.6-19,12.9-19c0.2,0,0.3,0.7,0.3,1.5c0,1.1-1.3,3.5-5.7,10.1c-5.2,7.9-5.9,8.7-7,8.7h-1.3
			L284.9,8982.2z"/>
		<path d="M293.2,8976.6c4.6-6.8,4.6-6.9,4.7-5.2c0.1,1.5-0.3,2.3-3.1,6.5c-3.5,5.3-3.7,5.6-5.2,5.6
			C288.7,8983.4,289.2,8982.6,293.2,8976.6z"/>
		<path d="M242.4,8982.5c-0.1-0.3,8.7-13.9,19.6-30.2c18.7-27.8,20-29.7,21.2-29.7c1.3,0,0.4,1.3-18.8,30.2
			c-13.3,19.9-20.4,30.2-20.9,30.2C243.1,8983,242.6,8982.8,242.4,8982.5z"/>
		<path d="M167.1,8980.6c-0.5-0.6-0.9-1.1-0.9-1.3c0-0.2,8.5-12.9,18.8-28.4l18.8-28.1l1.9-0.1c1-0.1,1.9,0,1.9,0.2
			c0,0.6-38.9,58.7-39.3,58.7C168.1,8981.7,167.6,8981.2,167.1,8980.6z"/>
		<path d="M239.6,8980.6c-0.4-0.6,2.8-5.7,18.5-29.2c10.4-15.7,19-28.5,19.1-28.7c0.1-0.1,0.7-0.1,1.3,0c1.1,0.1,0.2,1.6-18.2,29.2
			c-10.6,16-19.5,29.1-19.7,29.2C240.3,8981.1,239.9,8980.9,239.6,8980.6z"/>
		<path d="M237.5,8976.7c-0.3-1.3,1.2-3.6,17.4-27.8c16.5-24.6,17.8-26.4,19-26.4c1.3,0,0.6,1.2-17,27.4
			c-10.1,15.1-18.5,27.5-18.7,27.7C238,8977.9,237.7,8977.5,237.5,8976.7z"/>
		<path d="M455.7,8967.7h177v7.2h-177V8967.7z"/>
		<path d="M164.3,8970.8v-2.9l15.1-22.6l15.1-22.6h2h2l-16.7,25.1c-9.2,13.8-16.9,25.2-17.1,25.6
			C164.5,8973.6,164.3,8972.5,164.3,8970.8z"/>
		<path d="M237.4,8969.9c0.1-1.8,1.8-4.6,15.2-24.5c8.3-12.4,15.1-22.6,15.1-22.6c0.1-0.1,0.7-0.1,1.3,0c1.1,0.1,0.4,1.3-14.9,24.2
			c-8.9,13.2-16.3,24.3-16.5,24.5C237.3,8971.8,237.3,8971.2,237.4,8969.9z"/>
		<path d="M237.3,8962.9c0-1.5,1.6-4.2,12.9-20.9c12-17.8,13-19.3,14.2-19.3c1.3,0,0.7,0.9-12.8,20.9c-7.7,11.5-14.1,20.9-14.2,20.9
			S237.3,8963.8,237.3,8962.9z"/>
		<path d="M455.7,8952.4h171.1v7.7H455.7V8952.4z"/>
		<path d="M164.3,8956.4v-2.7l10.4-15.6l10.4-15.6h2h2l-0.9,1.3c-4.7,7.4-23.4,35.2-23.7,35.2S164.3,8957.9,164.3,8956.4z"/>
		<path d="M237.3,8956c0-1.7,1-3.4,10.5-17.6c9.6-14.5,10.6-15.7,11.7-15.7c0.7,0,1.2,0.1,1.1,0.4c-0.1,0.3-22.8,34.3-23.1,34.7
			C237.4,8957.8,237.3,8957.1,237.3,8956z"/>
		<path d="M237.3,8948.9c0-1.6,0.9-3.2,8.1-14c7.4-10.9,8.3-12.1,9.5-12.2c1.3-0.1,1,0.4-7.7,13.5c-5,7.5-9.2,13.9-9.5,14.1
			C237.4,8950.5,237.3,8950,237.3,8948.9z"/>
		<path d="M164.3,8942.4v-2.7l5.7-8.5l5.7-8.5h2c1.1,0,2,0.2,1.8,0.4c-0.4,1-14.6,22.1-14.9,22.1
			C164.5,8945.2,164.3,8944,164.3,8942.4z"/>
		<path d="M455.7,8937.5h154.9v7.7H455.7V8937.5z"/>
		<path d="M237.3,8941.8c0-1.5,0.9-3,5.8-10.4c5.1-7.8,5.9-8.7,7-8.7c0.9,0,1.2,0.2,0.9,0.6c-0.8,1.3-12.9,19.5-13.3,19.9
			C237.4,8943.4,237.3,8942.8,237.3,8941.8z"/>
		<path d="M237.3,8934.9c0-1.6,0.5-2.7,3.3-6.8c3-4.6,4.3-5.9,5.6-5.3c0.3,0.1-1.6,3.3-4.2,7.1l-4.7,7V8934.9z"/>
		<path d="M455.7,8922.6h78.4v7.2h-78.4V8922.6z"/>
		<g>
			<g transform="translate(0.000000,1131.000000) scale(0.100000,-0.100000)">
				<path d="M2440.6-80695.1c-17,2.2-33.4,10.4-46.2,23.3c-11.9,11.8-19.2,25.6-22.6,42.2c-0.9,4.8-1,15.4-1,233.8
					s0.1,229.1,1,233.8c3.4,16.6,10.8,30.4,22.6,42.2c11.7,11.8,25.2,19,41.9,22.6c4.6,0.9,14.9,1,234.5,1
					c219.6,0,229.9-0.1,234.5-1c16.6-3.5,30.2-10.9,41.9-22.6c11.5-11.4,18.8-24.7,22.3-40.8l1.3-5.9v-229.4v-229.4l-1.3-5.9
					c-3.5-16-10.8-29.3-22.3-40.7c-11.4-11.5-24.2-18.5-41.3-22.6c-4-1-15.1-1-232.8-1.1
					C2542.7-80695.5,2442.8-80695.4,2440.6-80695.1z"/>
			</g>
			<g transform="translate(0.000000,1131.000000) scale(0.100000,-0.100000)">
				<path d="M3891.8-80695.1c-17,2.2-33.4,10.4-46.2,23.3c-11.9,11.8-19.2,25.6-22.6,42.2c-0.9,4.8-1,15.4-1,233.8
					s0.1,229.1,1,233.8c3.4,16.6,10.8,30.4,22.6,42.2c11.7,11.8,25.2,19,41.9,22.6c4.6,0.9,14.9,1,234.5,1
					c219.6,0,229.9-0.1,234.5-1c16.6-3.5,30.2-10.9,41.9-22.6c11.5-11.4,18.8-24.7,22.3-40.8l1.3-5.9v-229.4v-229.4l-1.3-5.9
					c-3.5-16-10.8-29.3-22.3-40.7c-11.4-11.5-24.2-18.5-41.3-22.6c-4-1-15.1-1-232.8-1.1C3994-80695.5,3894-80695.4,3891.8-80695.1z
					"/>
			</g>
			<g transform="translate(0.000000,1131.000000) scale(0.100000,-0.100000)">
				<path d="M1712.1-79971.3c-17,2.2-33.4,10.4-46.2,23.3c-11.9,11.8-19.2,25.5-22.6,42.2c-0.9,4.8-1,15.4-1,233.8
					c0,218.4,0.1,229.1,1,233.8c3.4,16.6,10.8,30.4,22.6,42.2c11.7,11.8,25.2,19,41.9,22.6c4.6,1,14.9,1,234.5,1s229.9-0.1,234.5-1
					c16.6-3.5,30.2-10.9,41.9-22.6c11.5-11.4,18.8-24.7,22.3-40.8l1.3-5.9v-229.4v-229.4l-1.3-5.9c-3.5-16-10.8-29.3-22.3-40.7
					c-11.4-11.5-24.2-18.5-41.3-22.6c-4-1-15.1-1-232.8-1.1C1814.3-79971.7,1714.4-79971.6,1712.1-79971.3z"/>
			</g>
			<g transform="translate(0.000000,1131.000000) scale(0.100000,-0.100000)">
				<path d="M3169-79972.9c-17,2.2-33.4,10.4-46.2,23.3c-11.9,11.8-19.2,25.6-22.6,42.2c-0.9,4.8-1,15.5-1,233.8
					c0,218.4,0.1,229.1,1,233.8c3.4,16.6,10.8,30.4,22.6,42.2c11.7,11.8,25.2,19,41.9,22.6c4.6,0.9,14.9,1,234.5,1
					c219.6,0,229.9-0.1,234.5-1c16.6-3.5,30.2-10.9,41.9-22.6c11.5-11.4,18.8-24.7,22.3-40.7l1.3-5.9v-229.4v-229.4l-1.3-5.9
					c-3.5-16-10.8-29.3-22.3-40.8c-11.4-11.5-24.2-18.5-41.3-22.6c-4-0.9-15.1-1-232.8-1.1
					C3271.2-79973.4,3171.2-79973.2,3169-79972.9z"/>
			</g>
			<g transform="translate(0.000000,1131.000000) scale(0.100000,-0.100000)">
				<path d="M2442.1-79248.2c-17,2.2-33.4,10.4-46.2,23.3c-11.9,11.8-19.2,25.6-22.6,42.2c-0.9,4.8-1,15.4-1,233.8
					s0.1,229.1,1,233.8c3.4,16.6,10.8,30.4,22.6,42.2c11.7,11.8,25.2,19,41.9,22.6c4.6,0.9,14.9,1,234.5,1
					c219.6,0,229.9-0.1,234.5-1c16.6-3.5,30.2-10.9,41.9-22.6c11.5-11.5,18.8-24.7,22.3-40.8l1.3-5.9v-229.4v-229.4l-1.3-5.9
					c-3.5-16-10.8-29.3-22.3-40.7c-11.4-11.5-24.2-18.5-41.3-22.6c-4-0.9-15.1-1-232.8-1.1
					C2544.3-79248.7,2444.3-79248.5,2442.1-79248.2z"/>
			</g>
			<g transform="translate(0.000000,1131.000000) scale(0.100000,-0.100000)">
				<path d="M1721.2-79243.6c-17,2.2-33.4,10.4-46.2,23.3c-11.9,11.8-19.2,25.6-22.6,42.2c-0.9,4.8-1,15.4-1,233.8
					c0,218.4,0.1,229.1,1,233.8c3.4,16.6,10.8,30.4,22.6,42.2c11.7,11.8,25.2,19,41.9,22.6c4.6,1,14.9,1,234.5,1s229.9-0.1,234.5-1
					c16.6-3.5,30.2-10.9,41.9-22.6c11.5-11.5,18.8-24.7,22.3-40.7l1.3-5.9v-229.4v-229.4l-1.3-5.9c-3.5-16-10.8-29.3-22.3-40.8
					c-11.4-11.5-24.2-18.5-41.3-22.6c-4-1-15.1-1-232.8-1.1C1823.3-79244,1723.3-79243.9,1721.2-79243.6z"/>
			</g>
			<g transform="translate(0.000000,1131.000000) scale(0.100000,-0.100000)">
				<path d="M3169-78519.5c-17,2.2-33.4,10.4-46.2,23.3c-11.9,11.8-19.2,25.6-22.6,42.2c-0.9,4.8-1,15.4-1,233.8s0.1,229.1,1,233.8
					c3.4,16.6,10.8,30.4,22.6,42.2c11.7,11.8,25.2,19,41.9,22.6c4.6,0.9,14.9,1,234.5,1c219.6,0,229.9-0.1,234.5-1
					c16.6-3.5,30.2-10.9,41.9-22.6c11.5-11.4,18.8-24.7,22.3-40.7l1.3-5.9v-229.4v-229.4l-1.3-5.9c-3.5-16-10.8-29.3-22.3-40.8
					c-11.4-11.5-24.2-18.5-41.3-22.6c-4-1-15.1-1-232.8-1.1C3271.2-78519.9,3171.2-78519.7,3169-78519.5z"/>
			</g>
		</g>
	</g>
</g>
<g>
	<circle style="fill:#FB9E19;stroke:#FFFFFF;stroke-miterlimit:10;" cx="15" cy="13.3" r="13"/>
	<g>
		<path style="fill:#FFFFFF;" d="M12.4,17.4c0.4,0.3,1.3,0.7,2.3,0.7c1.8,0,2.4-1.2,2.4-2c0-1.5-1.3-2.1-2.7-2.1h-0.8v-1.1h0.8
			c1,0,2.3-0.5,2.3-1.8c0-0.8-0.5-1.6-1.8-1.6c-0.8,0-1.6,0.4-2.1,0.7l-0.4-1C13,8.8,14,8.4,15.1,8.4c2,0,3,1.2,3,2.5
			c0,1.1-0.6,2-1.9,2.4v0c1.3,0.3,2.3,1.2,2.3,2.7c0,1.7-1.3,3.1-3.8,3.1c-1.2,0-2.2-0.4-2.7-0.7L12.4,17.4z"/>
	</g>
</g>
</svg>
